<svg height="382.29333pt" viewBox="0 0 382.29333 382.29333" width="382.29333pt" xmlns="http://www.w3.org/2000/svg"><path d="m368.640625 191.148438c0 98.023437-79.46875 177.492187-177.492187 177.492187-98.027344 0-177.496094-79.46875-177.496094-177.492187 0-98.027344 79.46875-177.496094 177.496094-177.496094 98.023437 0 177.492187 79.46875 177.492187 177.496094zm0 0" fill="#2ee52b"/><g fill="#5c128d"><path d="m191.148438 382.292969c-105.402344 0-191.148438-85.746094-191.148438-191.144531 0-105.402344 85.746094-191.148438 191.148438-191.148438 105.398437 0 191.144531 85.746094 191.144531 191.148438 0 105.398437-85.746094 191.144531-191.144531 191.144531zm0-354.984375c-90.34375 0-163.839844 73.496094-163.839844 163.839844 0 90.339843 73.496094 163.839843 163.839844 163.839843 90.339843 0 163.839843-73.5 163.839843-163.839843 0-90.34375-73.5-163.839844-163.839843-163.839844zm0 0"/><path d="m191.148438 273.066406c-2.449219 0-4.882813-.660156-7.027344-1.945312l-68.265625-40.960938c-6.46875-3.878906-8.5625-12.269531-4.679688-18.734375 3.878907-6.472656 12.253907-8.566406 18.730469-4.679687l55.140625 33.085937 61.941406-136.253906c3.121094-6.863281 11.253907-9.90625 18.074219-6.78125 6.867188 3.121094 9.898438 11.214844 6.78125 18.074219l-68.265625 150.1875c-1.609375 3.546875-4.65625 6.234375-8.367187 7.386718-1.332032.414063-2.703126.621094-4.0625.621094zm0 0"/></g></svg>