<svg height="512pt" viewBox="0 0 512 512" width="512pt" xmlns="http://www.w3.org/2000/svg"><path d="m256 512c-141.160156 0-256-114.839844-256-256s114.839844-256 256-256 256 114.839844 256 256-114.839844 256-256 256zm0-475.429688c-120.992188 0-219.429688 98.4375-219.429688 219.429688s98.4375 219.429688 219.429688 219.429688 219.429688-98.4375 219.429688-219.429688-98.4375-219.429688-219.429688-219.429688zm0 0"/><path d="m256 365.714844c-3.277344 0-6.535156-.886719-9.410156-2.609375l-91.429688-54.855469c-8.660156-5.195312-11.464844-16.429688-6.265625-25.089844 5.195313-8.671875 16.410157-11.476562 25.089844-6.269531l73.847656 44.3125 82.957031-182.480469c4.179688-9.195312 15.070313-13.269531 24.207032-9.082031 9.195312 4.179687 13.257812 15.019531 9.078125 24.207031l-91.425781 201.140625c-2.152344 4.75-6.234376 8.347657-11.207032 9.894531-1.78125.554688-3.621094.832032-5.441406.832032zm0 0"/></svg>