<svg width="11" height="15" viewBox="0 0 11 15" fill="none" xmlns="http://www.w3.org/2000/svg">
<path d="M9.96182 3.60621C9.61012 1.97581 8.21409 0.69486 6.58701 0.328122C5.87113 0.167522 5.12856 0.167522 4.41268 0.328122C2.7856 0.69486 1.38956 1.97581 1.03786 3.60622C0.722551 5.068 1.05347 5.83439 1.71814 7.43797L4.33276 14.0126C4.4284 14.2434 4.59033 14.4406 4.79806 14.5794C5.0058 14.7182 5.25001 14.7922 5.49983 14.7922C5.74965 14.7922 5.99387 14.7182 6.2016 14.5794C6.40933 14.4406 6.57126 14.2434 6.66691 14.0126L9.28153 7.43796C9.94621 5.83438 10.2771 5.06799 9.96182 3.60621ZM5.49984 6.61559C5.08297 6.61559 4.67546 6.49197 4.32884 6.26037C3.98223 6.02877 3.71207 5.69959 3.55254 5.31445C3.39301 4.92931 3.35127 4.50552 3.43259 4.09666C3.51392 3.6878 3.71466 3.31223 4.00943 3.01746C4.30421 2.72269 4.67977 2.52195 5.08863 2.44062C5.49749 2.35929 5.92129 2.40103 6.30642 2.56056C6.69156 2.72009 7.02075 2.99024 7.25235 3.33686C7.48395 3.68347 7.60756 4.09098 7.60756 4.50785C7.60756 5.06686 7.3855 5.60297 6.99022 5.99824C6.59495 6.39352 6.05884 6.61558 5.49984 6.61559Z" fill="#7975B5"/>
</svg>
