<svg width="62" height="62" viewBox="0 0 62 62" fill="none" xmlns="http://www.w3.org/2000/svg">
<g clip-path="url(#clip0)">
<path d="M59.1507 31.0021L61.8708 23.9075C62.1691 23.1248 61.9367 22.2375 61.2818 21.7066L55.3845 16.9252L54.1911 9.41984C54.0593 8.59064 53.4084 7.94356 52.5792 7.81182L45.0738 6.61841L40.2963 0.717183C39.7693 0.0623527 38.8626 -0.170131 38.0993 0.128223L31.0008 2.85216L23.9061 0.132098C23.1196 -0.170131 22.24 0.0701021 21.7092 0.721058L16.9277 6.62228L9.42237 7.8157C8.59705 7.94744 7.9461 8.5984 7.81436 9.42371L6.62094 16.9291L0.719716 21.7105C0.0687609 22.2375 -0.167598 23.1248 0.130757 23.9075L2.85082 31.0021L0.130757 38.0968C-0.171473 38.8795 0.0687609 39.7668 0.719716 40.2937L6.62094 45.0713L7.81436 52.5766C7.9461 53.4058 8.59318 54.0568 9.42237 54.1885L16.9277 55.382L21.7092 61.2793C22.24 61.938 23.1273 62.1705 23.91 61.8683L31.0008 59.1521L38.0954 61.8721C38.3202 61.9574 38.5526 62 38.789 62C39.3586 62 39.9204 61.7481 40.2963 61.2793L45.0738 55.382L52.5792 54.1885C53.4084 54.0568 54.0593 53.4058 54.1911 52.5766L55.3845 45.0713L61.2818 40.2937C61.9367 39.7629 62.1691 38.8795 61.8708 38.0968L59.1507 31.0021Z" fill="#7975B5"/>
<path d="M25.1886 27.1279C21.9842 27.1279 19.3765 24.5202 19.3765 21.3158C19.3765 18.1114 21.9842 15.5037 25.1886 15.5037C28.393 15.5037 31.0007 18.1114 31.0007 21.3158C31.0007 24.5202 28.393 27.1279 25.1886 27.1279ZM25.1886 19.3784C24.1191 19.3784 23.2512 20.2463 23.2512 21.3158C23.2512 22.3852 24.1191 23.2531 25.1886 23.2531C26.258 23.2531 27.1259 22.3852 27.1259 21.3158C27.1259 20.2463 26.258 19.3784 25.1886 19.3784Z" fill="#FAFAFA"/>
<path d="M36.8131 46.501C33.6087 46.501 31.001 43.8933 31.001 40.6889C31.001 37.4845 33.6087 34.8768 36.8131 34.8768C40.0175 34.8768 42.6252 37.4845 42.6252 40.6889C42.6252 43.8933 40.0175 46.501 36.8131 46.501ZM36.8131 38.7516C35.7475 38.7516 34.8757 39.6234 34.8757 40.6889C34.8757 41.7545 35.7475 42.6263 36.8131 42.6263C37.8786 42.6263 38.7504 41.7545 38.7504 40.6889C38.7504 39.6234 37.8786 38.7516 36.8131 38.7516Z" fill="#FAFAFA"/>
<path d="M21.3141 46.5011C20.9227 46.5011 20.5314 46.3848 20.1904 46.1407C19.3186 45.5169 19.1171 44.308 19.7409 43.4361L39.1146 16.313C39.7384 15.4412 40.9473 15.2397 41.8192 15.8635C42.691 16.4835 42.8886 17.6963 42.2686 18.5642L22.895 45.6874C22.5114 46.2182 21.9185 46.5011 21.3141 46.5011Z" fill="#FAFAFA"/>
</g>
<defs>
<clipPath id="clip0">
<rect width="62" height="62" fill="white"/>
</clipPath>
</defs>
</svg>
