<svg width="82" height="62" viewBox="0 0 82 62" fill="none" xmlns="http://www.w3.org/2000/svg">
<path d="M30.7611 7.48276H20.0714C19.481 7.48276 19.0024 7.00416 19.0024 6.41379V4.27586C19.0024 3.68549 19.481 3.20689 20.0714 3.20689H79.9335C80.5238 3.20689 81.0024 3.68549 81.0024 4.27586V6.41379C81.0024 7.00416 80.5238 7.48276 79.9335 7.48276H30.7611Z" fill="#423F65"/>
<path d="M80.5215 32.9776C79.3884 34.3565 74.4818 36.0883 69.2439 37.061C68.5384 37.1893 67.8222 37.3069 67.106 37.4138V57.7241C67.106 60.0865 61.4618 62 50.537 62C39.6122 62 32.8991 60.0865 32.8991 57.7241V37.5421C32.1722 37.4672 31.456 37.371 30.7611 37.2534C25.0636 36.3662 20.6915 34.4421 19.4836 32.9776C18.9086 32.2823 18.8398 31.2981 19.3125 30.5296L27.9605 16.291C28.2151 15.8647 28.6129 15.5427 29.0829 15.3824L30.7611 14.7838L37.1749 12.5069L39.0991 11.8228C39.3806 11.7129 39.6952 11.7254 39.967 11.8573C40.2389 11.9892 40.4435 12.2285 40.5315 12.5176C41.3439 15.5107 45.2242 17.7769 50.0025 17.7769C54.7808 17.7769 58.6611 15.5107 59.4736 12.5176C59.5616 12.2285 59.7661 11.9892 60.038 11.8573C60.3099 11.7254 60.6245 11.7129 60.906 11.8228L63.8991 12.8917L70.3022 15.1579L70.9222 15.3824C71.3922 15.5427 71.7899 15.8647 72.0446 16.291L80.6925 30.5296C81.1653 31.2981 81.0965 32.2823 80.5215 32.9776Z" fill="#6762AB"/>
<path d="M35.0371 0H32.8992C31.7184 0 30.7612 0.957184 30.7612 2.13793V14.9655C30.7612 16.1463 31.7184 17.1035 32.8992 17.1035H35.0371C36.2178 17.1035 37.175 16.1463 37.175 14.9655V2.13793C37.175 0.957184 36.2178 0 35.0371 0Z" fill="#CCCCCC"/>
<path d="M70.3132 2.13793V14.9655C70.315 15.0298 70.3114 15.0942 70.3025 15.1579C70.203 16.2589 69.2807 17.1024 68.1753 17.1035H66.0373C64.8581 17.0999 63.9029 16.1448 63.8994 14.9655V2.13793C63.9029 0.958646 64.8581 0.00352203 66.0373 0H68.1753C69.3546 0.00352203 70.3097 0.958646 70.3132 2.13793Z" fill="#CCCCCC"/>
<path d="M60.6921 51.3103C60.6921 53.0815 59.2563 54.5172 57.4852 54.5172C55.7141 54.5172 54.2783 53.0815 54.2783 51.3103C54.2783 50.1591 55.6338 47.4792 56.5819 45.9655C56.7779 45.6559 57.1188 45.4682 57.4852 45.4682C57.8516 45.4682 58.1925 45.6559 58.3885 45.9655C59.3367 47.4792 60.6921 50.1591 60.6921 51.3103Z" fill="white" fill-opacity="0.33"/>
<path d="M46.7956 39.8421C46.7956 41.6133 45.3599 43.049 43.5887 43.049C41.8176 43.049 40.3818 41.6133 40.3818 39.8421C40.3818 38.6909 41.7373 36.011 42.6855 34.4973C42.8814 34.1877 43.2223 34 43.5887 34C43.9552 34 44.2961 34.1877 44.492 34.4973C45.4402 36.011 46.7956 38.6909 46.7956 39.8421Z" fill="white" fill-opacity="0.42"/>
<path d="M32.8992 31V37.5421C32.1723 37.4672 31.4561 37.371 30.7612 37.2534V31C30.7612 30.4096 31.2398 29.931 31.8302 29.931C32.4206 29.931 32.8992 30.4096 32.8992 31Z" fill="#423F65"/>
<path d="M69.2439 31V37.061C68.5384 37.1893 67.8222 37.3069 67.106 37.4138V31C67.106 30.4096 67.5845 29.931 68.1749 29.931C68.7653 29.931 69.2439 30.4096 69.2439 31Z" fill="#423F65"/>
<path d="M11.7611 7.48276H1.07141C0.481034 7.48276 0.00244141 7.00416 0.00244141 6.41379V4.27586C0.00244141 3.68549 0.481034 3.20689 1.07141 3.20689H60.9335C61.5238 3.20689 62.0024 3.68549 62.0024 4.27586V6.41379C62.0024 7.00416 61.5238 7.48276 60.9335 7.48276H11.7611Z" fill="#423F65"/>
<path d="M61.5215 32.9776C60.3884 34.3565 55.4818 36.0883 50.2439 37.061C49.5384 37.1893 48.8222 37.3069 48.106 37.4138V57.7241C48.106 60.0865 42.4618 62 31.537 62C20.6122 62 13.8991 60.0865 13.8991 57.7241V37.5421C13.1722 37.4672 12.456 37.371 11.7611 37.2534C6.06356 36.3662 1.69149 34.4421 0.483563 32.9776C-0.0914497 32.2823 -0.160211 31.2981 0.312528 30.5296L8.96046 16.291C9.2151 15.8647 9.61288 15.5427 10.0829 15.3824L11.7611 14.7838L18.1749 12.5069L20.0991 11.8228C20.3806 11.7129 20.6952 11.7254 20.967 11.8573C21.2389 11.9892 21.4435 12.2285 21.5315 12.5176C22.3439 15.5107 26.2242 17.7769 31.0025 17.7769C35.7808 17.7769 39.6611 15.5107 40.4736 12.5176C40.5616 12.2285 40.7661 11.9892 41.038 11.8573C41.3099 11.7254 41.6245 11.7129 41.906 11.8228L44.8991 12.8917L51.3022 15.1579L51.9222 15.3824C52.3922 15.5427 52.7899 15.8647 53.0446 16.291L61.6925 30.5296C62.1653 31.2981 62.0965 32.2823 61.5215 32.9776Z" fill="#FFB6DF"/>
<path d="M16.0371 0H13.8992C12.7184 0 11.7612 0.957184 11.7612 2.13793V14.9655C11.7612 16.1463 12.7184 17.1035 13.8992 17.1035H16.0371C17.2178 17.1035 18.175 16.1463 18.175 14.9655V2.13793C18.175 0.957184 17.2178 0 16.0371 0Z" fill="#CCCCCC"/>
<path d="M51.3132 2.13793V14.9655C51.315 15.0298 51.3114 15.0942 51.3025 15.1579C51.203 16.2589 50.2807 17.1024 49.1753 17.1035H47.0373C45.8581 17.0999 44.9029 16.1448 44.8994 14.9655V2.13793C44.9029 0.958646 45.8581 0.00352203 47.0373 0H49.1753C50.3546 0.00352203 51.3097 0.958646 51.3132 2.13793Z" fill="#CCCCCC"/>
<path d="M41.6921 51.3103C41.6921 53.0815 40.2563 54.5172 38.4852 54.5172C36.7141 54.5172 35.2783 53.0815 35.2783 51.3103C35.2783 50.1591 36.6338 47.4792 37.5819 45.9655C37.7779 45.6559 38.1188 45.4682 38.4852 45.4682C38.8516 45.4682 39.1925 45.6559 39.3885 45.9655C40.3367 47.4792 41.6921 50.1591 41.6921 51.3103Z" fill="white" fill-opacity="0.33"/>
<path d="M27.7956 39.8421C27.7956 41.6133 26.3599 43.049 24.5887 43.049C22.8176 43.049 21.3818 41.6133 21.3818 39.8421C21.3818 38.6909 22.7373 36.011 23.6855 34.4973C23.8814 34.1877 24.2223 34 24.5887 34C24.9552 34 25.2961 34.1877 25.492 34.4973C26.4402 36.011 27.7956 38.6909 27.7956 39.8421Z" fill="white" fill-opacity="0.42"/>
<path d="M13.8992 31V37.5421C13.1723 37.4672 12.4561 37.371 11.7612 37.2534V31C11.7612 30.4096 12.2398 29.931 12.8302 29.931C13.4206 29.931 13.8992 30.4096 13.8992 31Z" fill="#FF6CBF"/>
<path d="M50.2439 31V37.061C49.5384 37.1893 48.8222 37.3069 48.106 37.4138V31C48.106 30.4096 48.5845 29.931 49.1749 29.931C49.7653 29.931 50.2439 30.4096 50.2439 31Z" fill="#FF6CBF"/>
</svg>
